<svg width="560" height="286" viewBox="0 0 560 286" fill="none" xmlns="http://www.w3.org/2000/svg">
<path d="M260.469 67.6173C261.129 67.2207 261.97 67.687 261.984 68.4567L262.275 84.9086C262.289 85.6782 261.464 86.1741 260.791 85.801L246.397 77.8276C245.724 77.4545 245.707 76.4924 246.367 76.0958L260.469 67.6173Z" stroke="#9EFFAE" stroke-width="2"/>
<rect x="419.293" y="24.5934" width="2" height="22" rx="1" transform="rotate(68.7174 419.293 24.5934)" fill="#FB9EF5"/>
<rect x="414.33" y="39.4047" width="2" height="22" rx="1" transform="rotate(158.717 414.33 39.4047)" fill="#FB9EF5"/>
<rect x="79.1591" y="266.605" width="2" height="22" rx="1" transform="rotate(68.7174 79.1591 266.605)" fill="#FEC5E2"/>
<rect x="74.1967" y="281.416" width="2" height="22" rx="1" transform="rotate(158.717 74.1967 281.416)" fill="#FEC5E2"/>
<circle cx="445.187" cy="197.322" r="11" transform="rotate(5.95608 445.187 197.322)" stroke="#22E742" stroke-width="2"/>
<circle cx="140.772" cy="185.485" r="11" transform="rotate(5.95608 140.772 185.485)" stroke="white" stroke-width="2"/>
<circle cx="539.095" cy="5.53055" r="4.5" transform="rotate(5.95608 539.095 5.53055)" fill="white"/>
<circle cx="554.224" cy="120.722" r="4.5" transform="rotate(5.95608 554.224 120.722)" fill="white"/>
<circle cx="279.154" cy="222.73" r="4.5" transform="rotate(5.95608 279.154 222.73)" fill="white"/>
<circle cx="375.689" cy="126.226" r="2.5" transform="rotate(5.95608 375.689 126.226)" fill="white"/>
<circle cx="2.92298" cy="200.949" r="2.5" transform="rotate(5.95608 2.92298 200.949)" fill="white"/>
</svg>
